<svg fill="#fff" height="800px" width="800px" version="1.1" id="Layer_1" xmlns="http://www.w3.org/2000/svg" xmlns:xlink="http://www.w3.org/1999/xlink" 
	 viewBox="0 0 301.295 301.295" xml:space="preserve">
<g>
	<g>
		<g>
			<path d="M292.682,191.598l-22.93-13.239c2.097-9.051,3.159-18.347,3.159-27.71s-1.061-18.659-3.159-27.71l22.93-13.239
				c3.428-1.979,4.603-6.363,2.624-9.792L266.92,50.742c-0.951-1.647-2.517-2.848-4.353-3.34c-1.835-0.493-3.793-0.234-5.44,0.716
				L234.17,61.372c-13.698-12.824-30.102-22.307-47.968-27.729V7.168c0-3.959-3.21-7.168-7.169-7.168h-56.772
				c-3.959,0-7.169,3.21-7.169,7.168v26.473c-17.865,5.423-34.27,14.906-47.968,27.729L44.168,48.116
				c-1.647-0.95-3.605-1.208-5.44-0.716c-1.836,0.492-3.403,1.693-4.353,3.34L5.99,99.906c-1.979,3.429-0.805,7.813,2.624,9.792
				l22.93,13.238c-2.097,9.051-3.159,18.347-3.159,27.71c0,9.363,1.061,18.659,3.159,27.71l-22.93,13.239
				c-3.428,1.979-4.603,6.363-2.624,9.792l28.385,49.166c0.951,1.647,2.517,2.848,4.353,3.34c1.836,0.492,3.793,0.235,5.44-0.716
				l22.957-13.254c13.699,12.824,30.104,22.307,47.968,27.729v26.474c0,3.96,3.21,7.169,7.169,7.169h56.772
				c3.959,0,7.169-3.21,7.169-7.166v-26.474c17.865-5.423,34.269-14.905,47.968-27.729l22.957,13.254
				c1.646,0.95,3.604,1.207,5.44,0.716c1.836-0.492,3.403-1.693,4.353-3.34l28.385-49.166
				C297.285,197.962,296.111,193.577,292.682,191.598z M258.087,237.178l-21.461-12.391c-2.839-1.638-6.427-1.144-8.716,1.203
				c-13.926,14.278-31.437,24.4-50.64,29.271c-3.18,0.807-5.406,3.668-5.406,6.948v24.749h-42.433v-20.904l33.909-33.909
				c2.799-2.8,2.799-7.338,0-10.138c-2.8-2.8-7.338-2.8-10.139,0l-32.387,32.387c-15.728-4.515-30.229-12.585-42.422-23.587
				l30.048-30.047c2.799-2.8,2.799-7.338,0-10.138c-2.8-2.8-7.338-2.8-10.139,0l-34.894,34.894l-20.2,11.663l-21.217-36.749
				l21.43-12.373c2.837-1.638,4.203-4.993,3.317-8.147c-2.664-9.481-4.015-19.326-4.015-29.26s1.35-19.779,4.015-29.26
				c0.886-3.155-0.479-6.509-3.317-8.147l-21.43-12.373l21.217-36.749l21.461,12.391c2.839,1.638,6.427,1.144,8.716-1.204
				c13.925-14.278,31.436-24.4,50.639-29.271c3.18-0.807,5.406-3.668,5.406-6.948V14.337h42.434v24.748
				c0,3.28,2.227,6.142,5.406,6.948c19.203,4.871,36.714,14.993,50.639,29.271c2.288,2.347,5.877,2.842,8.716,1.204l21.461-12.391
				l21.217,36.749l-21.43,12.373c-2.837,1.638-4.203,4.993-3.317,8.147c2.664,9.481,4.015,19.325,4.015,29.26
				s-1.351,19.779-4.015,29.26c-0.886,3.155,0.479,6.509,3.317,8.147l21.43,12.373L258.087,237.178z"/>
			<path d="M150.647,113.309c-20.588,0-37.339,16.75-37.339,37.339c0,20.589,16.75,37.339,37.339,37.339
				c20.588,0,37.339-16.75,37.339-37.339S171.235,113.309,150.647,113.309z M150.647,173.649c-12.683,0-23.001-10.319-23.001-23.002
				c0-12.683,10.318-23.002,23.001-23.002s23.001,10.319,23.001,23.002C173.649,163.331,163.331,173.649,150.647,173.649z"/>
		</g>
	</g>
</g>
</svg>